HIERARCHY
ROOT Hips
{
  OFFSET 0 0 0
  CHANNELS 6 Xposition Yposition Zposition Zrotation Yrotation Xrotation
  JOINT LeftThigh
  {
    OFFSET 8.409438 0 -5.917753
    CHANNELS 3 Zrotation Yrotation Xrotation
    JOINT LeftLeg
    {
      OFFSET 0 0 -42.358652
      CHANNELS 3 Zrotation Yrotation Xrotation
      JOINT LeftFoot
      {
        OFFSET 0 0 -39.357303
        CHANNELS 3 Zrotation Yrotation Xrotation
      }
    }
  }
  JOINT RightThigh
  {
    OFFSET -8.409438 0 -5.917753
    CHANNELS 3 Zrotation Yrotation Xrotation
    JOINT RightLeg
    {
      OFFSET 0 0 -42.358652
      CHANNELS 3 Zrotation Yrotation Xrotation
      JOINT RightFoot
      {
        OFFSET 0 0 -39.357303
        CHANNELS 3 Zrotation Yrotation Xrotation
      }
    }
  }
  JOINT SpineLow
  {
    OFFSET 0 0 4.719101
    CHANNELS 3 Zrotation Yrotation Xrotation
    JOINT SpineMid
    {
      OFFSET 0 0 12.899191
      CHANNELS 3 Zrotation Yrotation Xrotation
      JOINT Chest
      {
        OFFSET 0 0 12.899191
        CHANNELS 3 Zrotation Yrotation Xrotation
        JOINT LeftShoulder
        {
          OFFSET 7.550562 1.41573 9.438202
          CHANNELS 3 Zrotation Yrotation Xrotation
          JOINT LeftArm
          {
            OFFSET 9.155056 0 4.247191
            CHANNELS 3 Zrotation Yrotation Xrotation
            JOINT LeftForearm
            {
              OFFSET 0 0 25.771955
              CHANNELS 3 Zrotation Yrotation Xrotation
              JOINT LeftHand
              {
                OFFSET 0 0 25.197169
                CHANNELS 3 Zrotation Yrotation Xrotation
              }
            }
          }
        }
        JOINT RightShoulder
        {
          OFFSET -7.550562 1.41573 9.438202
          CHANNELS 3 Zrotation Yrotation Xrotation
          JOINT RightArm
          {
            OFFSET -9.155056 0 4.247191
            CHANNELS 3 Zrotation Yrotation Xrotation
            JOINT RightForearm
            {
              OFFSET 0 0 -25.771955
              CHANNELS 3 Zrotation Yrotation Xrotation
              JOINT RightHand
              {
                OFFSET 0 0 -25.197169
                CHANNELS 3 Zrotation Yrotation Xrotation
              }
            }
          }
        }
        JOINT Neck
        {
          OFFSET 0 0 15.101124
          CHANNELS 3 Zrotation Yrotation Xrotation
          JOINT Head
          {
            OFFSET 0 0 11.325843
            CHANNELS 3 Zrotation Yrotation Xrotation
            End Site
            {
              OFFSET 0 0 14.157303
            }
          }
        }
      }
    }
  }
}
MOTION
Frames: 15
Frame Time: 0.0
0.0  89.887642  0.0  -75.311726  29.983388  -160.244263  46.512693  -57.502972  -42.729568  -10.681745  11.765701  18.376427  10.270761  1.742526  3.766543  3.397726  37.655985  -40.147799  -16.479107  -3.919847  10.562276  6.543622  2.368692  -0.218615  -0.919492  -4.598725  -1.487105  -2.25195  -12.619831  -3.931853  -2.25195  -12.619831  -3.931853  -22.452423  29.888175  4.234114  91.865702  64.520959  -171.56347  -15.750839  -12.522526  54.790215  35.773084  -18.761738  78.3863  -23.380926  16.790603  10.499678  74.76672  42.74005  34.95872  -24.903611  -44.474789  -71.371765  53.187281  -11.924383  5.743633  -56.108531  13.386586  14.858526  -42.242822  8.768766  12.473104  
0.0  89.887642  0.0  -74.956396  29.861177  -159.503493  49.652931  -58.401977  -45.547499  -10.849591  14.172232  18.331327  10.540904  2.128971  3.552545  7.084796  38.194221  -37.882474  -18.246215  -3.618099  11.338943  6.39264  2.687754  -0.293462  -1.012837  -4.647427  -1.566876  -2.491618  -12.761022  -4.132996  -2.491618  -12.761022  -4.132995  -22.3339  29.842211  4.184057  94.050172  64.474489  -169.639102  -14.774234  -11.355055  54.610377  34.428825  -18.081873  79.934618  -23.279573  16.880556  10.683803  74.416186  42.350299  34.642964  -25.562736  -43.661333  -71.431121  53.641881  -11.095384  5.117083  -56.253463  13.548305  15.219461  -42.359907  8.855024  12.763808  
0.0  89.887642  0.0  -75.04237  30.328439  -159.277279  51.243031  -58.823573  -47.365771  -11.644122  16.375398  18.319863  11.107565  2.459877  3.341215  4.915948  37.193609  -40.698439  -17.840855  -3.409934  14.808609  6.450302  2.914031  -0.282339  -1.135133  -4.56835  -1.585761  -2.830223  -12.553124  -4.163242  -2.830223  -12.553124  -4.163242  -22.566898  29.500685  4.33724  94.220519  64.760985  -169.682732  -15.486498  -9.697221  54.487181  33.538853  -16.807392  81.636023  -23.593064  16.738431  10.677088  73.53904  41.575857  34.151631  -23.291152  -43.256144  -74.741556  53.301836  -10.060748  7.54394  -56.551293  13.358975  15.552029  -42.59197  8.673751  13.005821  
0.0  89.887642  0.0  -75.394432  31.21054  -159.275596  50.355937  -58.206848  -47.065219  -12.05295  17.29868  18.651001  11.248061  2.590559  3.142501  -1.121068  34.372294  -45.953441  -15.75476  -3.185064  19.331108  6.81953  3.136639  -0.332139  -1.225642  -4.476925  -1.580918  -3.086103  -12.308657  -4.13522  -3.086103  -12.308657  -4.13522  -23.415565  29.372604  4.126773  92.355568  64.900821  -171.781114  -17.477472  -8.194887  54.524298  33.421599  -15.66297  82.910642  -24.528789  16.438969  10.090495  72.747698  40.443533  33.854801  -22.862073  -42.28123  -76.035214  53.074475  -9.446102  8.948275  -57.143847  12.960707  15.501021  -43.034667  8.362563  12.947379  
0.0  89.887642  0.0  -75.625376  32.171627  -159.174068  49.186321  -56.62833  -46.589774  -12.822665  17.435953  19.167576  11.212937  2.696376  3.209029  -8.091635  29.896922  -51.355878  -12.821286  -2.855903  23.885774  6.887016  3.367883  -0.330448  -1.303043  -4.401194  -1.565689  -3.306685  -12.105726  -4.081152  -3.306685  -12.105727  -4.081152  -24.2195  29.348251  3.813372  89.592817  64.683651  -174.63028  -19.654865  -7.36831  54.544353  33.787368  -15.010404  83.764036  -26.132124  16.631792  9.471907  72.39865  39.267475  33.08795  -22.373314  -41.141563  -77.529884  52.787133  -8.953168  10.495652  -57.684516  12.55599  15.194739  -43.432139  8.071905  12.693417  
0.0  89.887642  0.0  -75.645046  33.125455  -158.933787  49.78486  -54.116875  -47.798124  -14.266384  17.759005  20.290988  10.803003  2.561584  3.270922  -13.747937  25.526811  -55.785991  -10.862728  -2.333618  28.47903  6.544265  3.601317  -0.3263  -1.36823  -4.326938  -1.543188  -3.494589  -11.905625  -4.009756  -3.494589  -11.905626  -4.009756  -24.888993  29.292641  3.621931  86.591314  64.427141  -177.614146  -21.401212  -7.282125  54.48491  34.330426  -15.015923  84.257177  -27.121963  16.201422  8.911221  72.199209  38.065227  32.984717  -22.194204  -39.830821  -78.850744  52.591471  -8.48202  11.809783  -58.109415  12.168996  14.818194  -43.741586  7.804481  12.384129  
0.0  89.887642  0.0  -75.203295  33.874596  -158.540495  52.220428  -51.607479  -50.041355  -16.427124  18.622387  21.356275  10.312805  2.422963  3.289342  -17.777284  21.930033  -59.536728  -9.834391  -1.710679  33.288452  6.082824  3.828233  -0.238447  -1.446731  -4.306224  -1.437411  -3.731677  -11.847934  -3.704243  -3.731677  -11.847934  -3.704242  -25.213089  29.275832  3.205775  83.82125  64.25064  179.626771  -22.521702  -7.749054  54.318427  34.938155  -15.730646  84.599495  -27.736296  15.811032  8.279921  72.380952  37.103037  32.966457  -22.859402  -38.291463  -79.445193  52.693881  -8.03732  12.186193  -58.205045  11.706362  14.267391  -43.801308  7.503882  11.927164  
0.0  89.887642  0.0  -73.967687  34.037923  -157.658703  54.682274  -49.561918  -51.020754  -18.583561  19.052876  21.556745  9.976646  2.362773  3.367108  -19.935968  18.540647  -62.834615  -8.867214  -0.832619  38.178646  5.819379  3.916364  -0.067443  -1.511521  -4.390452  -1.302789  -3.932021  -12.07381  -3.316669  -3.932022  -12.07381  -3.316669  -24.912364  29.366278  2.769994  82.205579  64.123826  177.984909  -22.923779  -8.645479  54.113522  35.730882  -16.910244  84.876392  -27.798754  15.814834  7.759051  73.136166  36.450627  33.209081  -23.538834  -36.777299  -80.245475  53.002907  -7.624171  12.403464  -57.923665  11.386942  13.592864  -43.576341  7.331729  11.38081  
0.0  89.887642  0.0  -71.986663  33.824248  -156.412957  56.260258  -48.591904  -50.311937  -19.677554  19.189848  21.251023  9.598418  2.283793  3.481404  -20.254774  15.712029  -65.486007  -7.816437  0.007229  42.969931  5.69993  3.896731  0.044162  -1.510293  -4.492732  -1.182894  -3.947764  -12.34629  -2.980701  -3.947764  -12.34629  -2.980701  -24.405524  29.426493  2.681778  82.336095  64.17006  177.919678  -22.448279  -9.744402  53.869343  36.826311  -18.426185  84.878114  -27.482021  16.072414  7.796835  73.845182  36.173236  33.421729  -24.763249  -35.132098  -80.53532  53.657981  -7.262115  12.494077  -57.481709  11.327187  13.011848  -43.232947  7.350321  10.925832  
0.0  89.887642  0.0  -69.488706  33.360633  -154.892856  55.833858  -49.219354  -47.954305  -19.220854  19.281425  20.990526  9.719631  2.390765  3.596579  -19.385586  13.284145  -67.448592  -6.358984  0.278222  47.293  5.334891  3.816736  0.127984  -1.424582  -4.569264  -1.067491  -3.730896  -12.545495  -2.674622  -3.730897  -12.545495  -2.674622  -24.113366  29.238953  2.653246  84.082874  64.266954  179.028911  -21.373828  -10.86434  53.835862  37.861836  -19.82617  84.66153  -27.332575  16.435555  8.098494  74.590932  35.982871  33.469058  -25.926828  -33.303964  -80.853497  54.545363  -7.444934  12.169577  -57.079308  11.338435  12.635665  -42.923587  7.401945  10.6333  
0.0  89.887642  0.0  -66.771262  32.916287  -153.388097  53.205109  -50.966961  -43.953865  -17.208655  19.472958  20.982849  10.417066  2.474738  3.736268  -17.897833  11.149289  -68.836947  -4.81152  0.075095  51.200055  4.675814  3.945654  0.312074  -1.321449  -4.614326  -0.954739  -3.46667  -12.659025  -2.381051  -3.46667  -12.659024  -2.381051  -24.00075  29.036444  2.625829  87.030919  64.321359  -179.086206  -20.035936  -11.759411  54.14252  38.964913  -21.522495  84.081057  -27.080667  16.688498  8.550197  74.619824  35.690302  33.539138  -26.334872  -31.318354  -81.708443  55.519609  -7.914828  12.038296  -56.686917  11.452264  12.30179  -42.622195  7.526754  10.382477  
0.0  89.887642  0.0  -63.929909  32.562351  -151.681802  49.265738  -52.722794  -38.920849  -14.412587  19.791339  21.122351  10.899781  2.64425  3.939145  -16.186873  9.511038  -70.144534  -3.71523  -0.204788  55.075625  3.862082  4.112202  0.394452  -1.208233  -4.620335  -0.825783  -3.178836  -12.665675  -2.046554  -3.178836  -12.665676  -2.046553  -24.14019  28.681937  2.281528  90.195532  64.377084  -177.324555  -18.962395  -12.377398  54.690476  40.240856  -23.353681  83.275018  -27.287023  16.856733  8.473558  75.751251  35.053923  33.185151  -27.379728  -29.496627  -81.797369  56.310529  -8.471302  12.302394  -56.243328  11.423555  11.953371  -42.282926  7.545185  10.106425  
0.0  89.887642  0.0  -61.02453  32.323884  -149.893826  44.967663  -53.831102  -33.499636  -11.569667  20.085232  21.381564  11.102294  2.772902  4.113955  -14.576195  8.457334  -71.555512  -3.219147  -0.624278  58.94332  3.035044  4.272897  0.562018  -1.123074  -4.596113  -0.683001  -2.97174  -12.590855  -1.66955  -2.97174  -12.590856  -1.669551  -24.316316  28.313233  1.777237  93.071249  64.323882  -175.828428  -18.343163  -12.923669  55.296563  41.402104  -24.994897  82.415083  -27.313175  16.616712  8.247406  77.128618  34.410518  33.041416  -28.0576  -28.165123  -81.929725  56.828266  -8.916238  13.047413  -55.666357  11.338116  11.536806  -41.842821  7.528555  9.770875  
0.0  89.887642  0.0  -58.475092  32.299591  -148.154279  41.173416  -54.027002  -28.777677  -9.5578  20.39664  21.611985  11.454542  2.897099  4.2323  -13.384147  7.871683  -73.260891  -3.488467  -0.7113  63.089708  2.603171  4.383907  0.688851  -1.126086  -4.556117  -0.542811  -3.007708  -12.475437  -1.283191  -3.007709  -12.475437  -1.28319  -24.395064  27.880602  1.133878  95.38627  64.117999  -174.74266  -18.18624  -13.55245  55.893304  42.196709  -26.399467  81.705629  -27.355612  16.240487  7.699476  78.949  33.683547  32.908884  -28.349545  -27.464852  -82.128806  56.992656  -9.117238  14.172441  -54.907947  11.176248  11.042945  -41.265971  7.463086  9.366377  
0.0  89.887642  0.0  -55.921708  32.096617  -146.430274  38.632196  -53.607408  -24.934257  -8.270497  20.55029  21.773603  11.798649  2.984148  4.349139  -11.984756  7.680125  -74.800429  -4.487896  -0.607332  67.219791  2.358157  4.464749  0.800509  -1.138906  -4.539174  -0.417203  -3.06741  -12.423656  -0.934389  -3.06741  -12.423656  -0.934389  -24.459695  27.559873  0.584806  97.3565  63.624295  -173.847798  -18.620225  -14.263723  56.636482  42.850696  -27.337039  81.166692  -26.88425  15.5908  7.449963  80.737846  33.192194  33.098783  -28.333945  -27.324712  -82.335037  56.771519  -9.028093  15.421235  -54.009728  11.133814  10.50824  -40.583211  7.492684  8.939134  
